# Blender v3.3.1 OBJ File: ''
# www.blender.org
o trajectory_curve_BezierCurve
v -2.000000 0.515271 -0.040000
v -2.000000 0.515271 0.040000
v -1.923893 0.610743 -0.040000
v -1.923893 0.610743 0.040000
v -1.825352 0.722364 -0.040000
v -1.825352 0.722364 0.040000
v -1.704703 0.844789 -0.040000
v -1.704703 0.844789 0.040000
v -1.562267 0.972673 -0.040000
v -1.562267 0.972673 0.040000
v -1.398369 1.100669 -0.040000
v -1.398369 1.100669 0.040000
v -1.213332 1.223432 -0.040000
v -1.213332 1.223432 0.040000
v -1.007481 1.335617 -0.040000
v -1.007481 1.335617 0.040000
v -0.781137 1.431878 -0.040000
v -0.781137 1.431878 0.040000
v -0.534626 1.506871 -0.040000
v -0.534626 1.506871 0.040000
v -0.268270 1.555248 -0.040000
v -0.268270 1.555248 0.040000
v 0.017606 1.571666 -0.040000
v 0.017606 1.571666 0.040000
v 0.322680 1.550778 -0.040000
v 0.322680 1.550778 0.040000
v 0.568495 1.500022 -0.040000
v 0.568495 1.500022 0.040000
v 0.794833 1.418252 -0.040000
v 0.794833 1.418252 0.040000
v 1.001752 1.310490 -0.040000
v 1.001752 1.310490 0.040000
v 1.189312 1.181762 -0.040000
v 1.189312 1.181762 0.040000
v 1.357573 1.037091 -0.040000
v 1.357573 1.037091 0.040000
v 1.506594 0.881500 -0.040000
v 1.506594 0.881500 0.040000
v 1.636434 0.720015 -0.040000
v 1.636434 0.720015 0.040000
v 1.747153 0.557658 -0.040000
v 1.747153 0.557658 0.040000
v 1.838809 0.399454 -0.040000
v 1.838809 0.399454 0.040000
v 1.911463 0.250427 -0.040000
v 1.911463 0.250427 0.040000
v 1.965174 0.115601 -0.040000
v 1.965174 0.115601 0.040000
v 2.000000 0.000000 -0.040000
v 2.000000 -0.000000 0.040000
vt 0.000000 1.000000
vt 0.041667 1.000000
vt 0.041667 0.000000
vt 0.000000 0.000000
vt 0.083333 1.000000
vt 0.083333 0.000000
vt 0.125000 1.000000
vt 0.125000 0.000000
vt 0.166667 1.000000
vt 0.166667 0.000000
vt 0.208333 1.000000
vt 0.208333 0.000000
vt 0.250000 1.000000
vt 0.250000 0.000000
vt 0.291667 1.000000
vt 0.291667 0.000000
vt 0.333333 1.000000
vt 0.333333 0.000000
vt 0.375000 1.000000
vt 0.375000 0.000000
vt 0.416667 1.000000
vt 0.416667 0.000000
vt 0.458333 1.000000
vt 0.458333 0.000000
vt 0.500000 1.000000
vt 0.500000 0.000000
vt 0.541667 1.000000
vt 0.541667 0.000000
vt 0.583333 1.000000
vt 0.583333 0.000000
vt 0.625000 1.000000
vt 0.625000 0.000000
vt 0.666667 1.000000
vt 0.666667 0.000000
vt 0.708333 1.000000
vt 0.708333 0.000000
vt 0.750000 1.000000
vt 0.750000 0.000000
vt 0.791667 1.000000
vt 0.791667 0.000000
vt 0.833333 1.000000
vt 0.833333 0.000000
vt 0.875000 1.000000
vt 0.875000 0.000000
vt 0.916667 1.000000
vt 0.916667 0.000000
vt 0.958333 1.000000
vt 0.958333 0.000000
vt 1.000000 1.000000
vt 1.000000 0.000000
vn -0.7819 0.6233 0.0000
vn -0.7661 0.6428 0.0000
vn -0.7312 0.6821 0.0000
vn -0.6905 0.7233 0.0000
vn -0.6422 0.7666 0.0000
vn -0.5846 0.8113 0.0000
vn -0.5162 0.8565 0.0000
vn -0.4355 0.9002 0.0000
vn -0.3417 0.9398 0.0000
vn -0.2353 0.9719 0.0000
vn -0.1182 0.9930 0.0000
vn 0.0055 1.0000 0.0000
vn 0.1356 0.9908 -0.0000
vn 0.2717 0.9624 0.0000
vn 0.4017 0.9158 0.0000
vn 0.5148 0.8573 0.0000
vn 0.6098 0.7925 0.0000
vn 0.6879 0.7258 0.0000
vn 0.7515 0.6598 0.0000
vn 0.8034 0.5955 0.0000
vn 0.8463 0.5327 0.0000
vn 0.8826 0.4701 0.0000
vn 0.9146 0.4044 0.0000
vn 0.9441 0.3296 0.0000
vn 0.9575 0.2885 0.0000
s 1
f 2/1/1 4/2/2 3/3/2 1/4/1
f 4/2/2 6/5/3 5/6/3 3/3/2
f 6/5/3 8/7/4 7/8/4 5/6/3
f 8/7/4 10/9/5 9/10/5 7/8/4
f 10/9/5 12/11/6 11/12/6 9/10/5
f 12/11/6 14/13/7 13/14/7 11/12/6
f 14/13/7 16/15/8 15/16/8 13/14/7
f 16/15/8 18/17/9 17/18/9 15/16/8
f 18/17/9 20/19/10 19/20/10 17/18/9
f 20/19/10 22/21/11 21/22/11 19/20/10
f 22/21/11 24/23/12 23/24/12 21/22/11
f 24/23/12 26/25/13 25/26/13 23/24/12
f 26/25/13 28/27/14 27/28/14 25/26/13
f 28/27/14 30/29/15 29/30/15 27/28/14
f 30/29/15 32/31/16 31/32/16 29/30/15
f 32/31/16 34/33/17 33/34/17 31/32/16
f 34/33/17 36/35/18 35/36/18 33/34/17
f 36/35/18 38/37/19 37/38/19 35/36/18
f 38/37/19 40/39/20 39/40/20 37/38/19
f 40/39/20 42/41/21 41/42/21 39/40/20
f 42/41/21 44/43/22 43/44/22 41/42/21
f 44/43/22 46/45/23 45/46/23 43/44/22
f 46/45/23 48/47/24 47/48/24 45/46/23
f 48/47/24 50/49/25 49/50/25 47/48/24
o landing_mesh_Plane
v 1.500000 0.000000 0.500000
v 2.500000 0.000000 0.500000
v 1.500000 0.000000 -0.500000
v 2.500000 0.000000 -0.500000
vt 0.000000 0.000000
vt 1.000000 0.000000
vt 1.000000 1.000000
vt 0.000000 1.000000
vn 0.0000 1.0000 0.0000
s off
f 51/51/26 52/52/26 54/53/26 53/54/26
